<?xml version="1.0" encoding="utf-8"?>
<!-- Generator: Adobe Illustrator 16.0.0, SVG Export Plug-In . SVG Version: 6.00 Build 0)  -->
<!DOCTYPE svg PUBLIC "-//W3C//DTD SVG 1.1//EN" "http://www.w3.org/Graphics/SVG/1.1/DTD/svg11.dtd">
<svg version="1.1" id="Layer_1" xmlns="http://www.w3.org/2000/svg" xmlns:xlink="http://www.w3.org/1999/xlink" x="0px" y="0px"
	 width="900px" height="900px" viewBox="0 0 900 900" enable-background="new 0 0 900 900" xml:space="preserve">
<g>
	<g>
		<g>
			<polygon fill="#D6A354" points="764.466,102.989 353.826,532.647 757.276,95.067 			"/>
		</g>
		<path fill="none" stroke="#D6A354" stroke-width="28" stroke-miterlimit="10" d="M490.213,479.445
			c-45.547,56.577-85.97,106.708-110.185,136.723c-14.927,18.512-23.691,29.37-23.691,29.37
			c44.499,45.071,31.099,143.77-35.988,153.307c-55.799,7.929-109.385-53.908-85.558-113.527
			c11.003-27.534,32.141-55.483,51.749-76.366c66.419-70.734,17.556-105.964,3.714-104.81c0,0,91.585-84.176,91.598-84.182
			l28.917-26.58"/>
		<g>
			<g>
				<path fill="#D6A354" d="M254.375,658.324c-19.949,16.365-46.607,30.965-72.211,28.752
					c-44.674-3.858-82.489-46.786-77.921-96.333c1.067-11.574,4.82-25.709,10.58-35.631c8.002-13.783,18.611-25.4,32.676-31.604
					c8.325-3.672,18.665-6.231,27.692-6.242c21.603-0.027,42.411,8.265,62.492,16.006c-29.648-11.43-66.474-29.092-95.433-5.555
					c-18.598,15.116-34.811,42.133-34.357,68.079c0.436,24.882,12.656,51.921,31.092,66.987
					c20.302,16.592,47.271,19.398,70.919,10.344c3.917-1.499,37.183-22.538,37.44-22.32
					C249.867,652.95,252.349,655.626,254.375,658.324z"/>
				<path fill="#D6A354" d="M258.271,663.412l-0.288,0.226l-2.417,1.896c-0.801,0.63-1.605,1.264-2.491,1.906
					c-1.729,1.287-3.458,2.575-5.197,3.754c-3.455,2.44-7.042,4.675-10.669,6.835c-7.288,4.258-14.957,7.872-22.974,10.591
					c-8.002,2.74-16.439,4.424-25.034,4.581c-2.143,0.115-4.302-0.064-6.455-0.175l-0.808-0.046l-0.202-0.013l-0.324-0.036
					l-0.371-0.044l-1.483-0.183l-1.484-0.182c-0.251-0.035-0.486-0.057-0.75-0.099l-0.809-0.141l-3.235-0.57
					c-1.064-0.209-2.079-0.472-3.119-0.709l-1.553-0.364l-1.533-0.441c-1.021-0.303-2.049-0.577-3.061-0.907
					c-4.051-1.322-8.004-2.949-11.857-4.813c-3.821-1.938-7.549-4.079-11.113-6.517c-3.537-2.474-6.977-5.114-10.187-8.064
					c-3.195-2.964-6.289-6.064-9.087-9.474c-5.646-6.756-10.457-14.354-14.122-22.583c-1.823-4.116-3.43-8.357-4.637-12.741
					l-0.474-1.635l-0.401-1.659c-0.256-1.108-0.544-2.209-0.771-3.326c-0.417-2.241-0.867-4.478-1.125-6.749
					c-0.352-2.257-0.473-4.545-0.673-6.819l-0.112-3.427c-0.057-1.141-0.037-2.283-0.005-3.425c0.035-1.143,0.021-2.286,0.1-3.424
					l0.249-3.413l0.063-0.854l0.034-0.334l0.026-0.2l0.05-0.4l0.202-1.603c0.141-1.077,0.241-2.104,0.463-3.279l0.593-3.426
					c0.214-1.128,0.478-2.205,0.714-3.312c0.443-2.207,1.102-4.356,1.67-6.527c1.33-4.291,2.74-8.56,4.698-12.658l0.7-1.546
					c0.249-0.51,0.533-1.008,0.798-1.513c0.555-1.022,1.051-1.978,1.658-3.048c0.558-0.907,1.077-1.786,1.665-2.714
					c0.61-0.931,1.207-1.896,1.829-2.797c2.458-3.631,5.142-7.107,8.08-10.349c5.86-6.477,12.789-12.023,20.542-15.771l1.462-0.677
					l0.73-0.338l0.183-0.084l0.261-0.113l0.35-0.142l2.799-1.125l3.04-1.063c1.016-0.356,2.008-0.612,3.013-0.924
					c4.019-1.147,8.099-2.023,12.257-2.535c2.089-0.206,4.177-0.409,6.301-0.418l0.792-0.021l0.396-0.008l0.451,0.01l1.492,0.047
					c1.01,0.046,1.954,0.029,3.026,0.13l3.137,0.237c1.033,0.1,2.046,0.237,3.07,0.353c1.024,0.107,2.038,0.265,3.052,0.431
					c1.011,0.17,2.031,0.299,3.035,0.507c8.07,1.484,15.921,3.786,23.599,6.432c7.675,2.66,15.188,5.652,22.66,8.61l-2.016,6.14
					c-7.336-2.908-14.552-5.945-21.831-8.663c-7.273-2.71-14.604-5.161-22.05-6.797c-7.434-1.635-15-2.489-22.45-1.86
					c-7.438,0.615-14.732,2.799-21.224,6.739c-1.608,1.006-3.201,2.051-4.711,3.234l-0.575,0.431l-0.241,0.177l-0.288,0.242
					l-1.147,0.973c-0.756,0.649-1.553,1.287-2.274,1.946c-1.397,1.354-2.851,2.597-4.196,4.065l-2.053,2.138l-1.954,2.243
					c-5.204,5.998-9.696,12.735-13.348,19.951c-1.871,3.587-3.386,7.364-4.781,11.183l-0.914,2.915l-0.458,1.457
					c-0.142,0.489-0.249,0.987-0.375,1.482l-0.733,2.97c-0.233,0.991-0.37,2.005-0.561,3.006c-0.42,2.001-0.569,4.038-0.793,6.067
					l-0.081,0.761l-0.024,0.765l-0.044,1.527l-0.046,1.53l-0.023,0.763l-0.002,0.096c0,0.009-0.001,0.117-0.003,0.043l0.008,0.197
					l0.015,0.394c0.089,2.096,0.123,4.232,0.367,6.222c0.113,1.014,0.158,2.023,0.323,3.041l0.459,3.054
					c0.128,1.022,0.369,2.025,0.566,3.033c0.216,1.007,0.388,2.022,0.639,3.021c0.532,1.983,0.968,4,1.624,5.946l0.92,2.939
					l1.055,2.888l0.527,1.444l0.595,1.412l1.193,2.825c3.38,7.428,7.612,14.435,12.73,20.596c1.321,1.495,2.588,3.053,4.021,4.427
					c0.707,0.696,1.376,1.439,2.112,2.1l2.215,1.972l0.553,0.493l0.138,0.124c0.05,0.041,0.011,0.015,0.042,0.037l0.075,0.057
					l0.296,0.229l1.185,0.918l2.374,1.824l2.429,1.612l1.214,0.81c0.406,0.27,0.844,0.491,1.263,0.736
					c6.741,3.924,14.06,6.776,21.647,8.151c7.572,1.411,15.357,1.688,23.006,0.609l2.867-0.414c0.953-0.163,1.895-0.385,2.844-0.572
					c1.906-0.345,3.767-0.905,5.64-1.408c0.943-0.229,1.854-0.582,2.778-0.885c0.916-0.315,1.855-0.615,2.753-0.946
					c1.716-0.792,3.458-1.814,5.166-2.779c6.85-3.945,13.625-8.063,20.413-12.149c3.394-2.043,6.779-4.104,10.196-6.106
					c0.43-0.248,0.856-0.497,1.296-0.729l0.169-0.084c0.045-0.014,0.032-0.027,0.124-0.038c0.121,0.024,0.073,0.043,0.119,0.065
					l0.277,0.254l0.555,0.51c0.368,0.346,0.747,0.674,1.105,1.029l1.057,1.089c1.412,1.452,2.696,3.034,3.936,4.652L258.271,663.412
					z M250.144,653.517l-0.835-0.835c-0.362-0.349-0.747-0.672-1.119-1.008l-0.563-0.5l-0.282-0.251
					c-0.006-0.004-0.086-0.079-0.031-0.024c0.033-0.001-0.035,0.02-0.046,0.027l-0.161,0.083c-0.43,0.235-0.854,0.493-1.278,0.747
					c-3.383,2.06-6.737,4.181-10.102,6.283c-6.726,4.205-13.437,8.438-20.24,12.513c-1.72,1.008-3.38,2.032-5.224,2.92
					c-0.933,0.362-1.854,0.673-2.782,1.01c-0.929,0.323-1.845,0.696-2.795,0.943c-1.888,0.541-3.763,1.143-5.687,1.523
					c-0.957,0.208-1.91,0.45-2.872,0.632l-2.899,0.47c-7.741,1.228-15.657,1.091-23.402-0.215
					c-7.76-1.267-15.298-4.051-22.283-7.962c-0.437-0.246-0.885-0.464-1.313-0.735l-1.279-0.821l-2.559-1.646l-2.403-1.784
					l-1.199-0.897l-0.299-0.223l-0.075-0.056l-0.102-0.084l-0.145-0.123l-0.579-0.498l-2.316-1.996
					c-0.769-0.669-1.472-1.419-2.21-2.127c-1.499-1.393-2.827-2.974-4.212-4.492c-5.369-6.256-9.829-13.386-13.426-20.979
					l-1.272-2.891l-0.635-1.446l-0.566-1.481l-1.133-2.959l-0.997-3.019c-0.705-1.999-1.192-4.078-1.771-6.122
					c-0.274-1.028-0.471-2.078-0.709-3.119c-0.22-1.043-0.483-2.077-0.634-3.137l-0.524-3.168c-0.186-1.051-0.257-2.146-0.39-3.219
					c-0.289-2.18-0.349-4.257-0.47-6.359l-0.021-0.393l-0.011-0.198v-0.256l0.011-0.813l0.024-1.625l0.024-1.626l0.017-0.813
					l0.072-0.808c0.201-2.15,0.334-4.316,0.742-6.433c0.185-1.063,0.318-2.138,0.547-3.187l0.724-3.139
					c0.125-0.522,0.231-1.05,0.374-1.566l0.456-1.537l0.916-3.079c1.397-4.026,2.93-8.006,4.824-11.783
					c3.701-7.602,8.272-14.69,13.611-21.051l2.008-2.381l2.114-2.272c1.37-1.543,2.941-2.949,4.424-4.417
					c0.752-0.709,1.51-1.336,2.265-2.006l1.133-0.989l0.284-0.248l0.352-0.279l0.616-0.478c1.617-1.31,3.331-2.478,5.069-3.604
					c7.014-4.425,15.002-6.962,23.024-7.761c8.042-0.819,16.088-0.032,23.882,1.539c7.809,1.575,15.39,3.974,22.837,6.604
					c7.447,2.637,14.758,5.567,22.05,8.313l-2.016,6.137c-7.527-2.832-15.008-5.663-22.54-8.128
					c-7.531-2.451-15.123-4.526-22.782-5.798c-0.956-0.18-1.916-0.281-2.873-0.426c-0.958-0.141-1.915-0.273-2.876-0.355
					c-0.957-0.091-1.923-0.204-2.873-0.28l-2.822-0.165c-4.014-0.164-7.608-0.101-11.389,0.42c-3.75,0.528-7.485,1.398-11.148,2.511
					c-0.905,0.298-1.848,0.557-2.72,0.885l-2.631,0.966l-2.783,1.173l-0.348,0.147c-0.101,0.043,0.039-0.019-0.004,0.004
					l-0.079,0.038l-0.159,0.077l-0.639,0.309l-1.275,0.615c-6.758,3.411-12.797,8.395-17.985,14.313
					c-2.598,2.959-4.99,6.156-7.19,9.52c-0.559,0.835-1.055,1.673-1.587,2.51c-0.526,0.857-1.067,1.804-1.601,2.702l-1.328,2.554
					c-0.222,0.437-0.458,0.857-0.667,1.304l-0.591,1.371c-1.662,3.597-2.884,7.503-4.031,11.399
					c-0.484,1.987-1.06,3.945-1.428,5.964c-0.198,0.999-0.432,2.011-0.603,2.999l-0.468,2.94c-0.177,0.938-0.273,2.06-0.396,3.121
					l-0.177,1.604l-0.044,0.402l-0.022,0.201l-0.011,0.101c0.024-0.223,0.003-0.008,0.007-0.032l-0.043,0.761l-0.177,3.039
					c-0.056,1.014-0.023,2.03-0.041,3.044c-0.015,1.013-0.019,2.028,0.049,3.042l0.142,3.035c0.216,2.013,0.341,4.038,0.69,6.031
					c0.254,2.008,0.689,3.981,1.084,5.96c0.215,0.984,0.49,1.957,0.729,2.936l0.375,1.464l0.445,1.441
					c1.123,3.866,2.611,7.604,4.284,11.232c3.364,7.254,7.752,13.953,12.879,19.892c2.538,3,5.349,5.716,8.235,8.313
					c2.903,2.583,6.01,4.88,9.189,7.03c3.205,2.115,6.551,3.958,9.964,5.623c3.445,1.587,6.965,2.968,10.557,4.076
					c0.897,0.274,1.808,0.496,2.711,0.748l1.356,0.37l1.371,0.293c0.911,0.188,1.836,0.414,2.733,0.572l2.665,0.428l0.666,0.11
					c0.227,0.032,0.489,0.055,0.733,0.082l1.486,0.156l1.486,0.156l0.372,0.04l0.092,0.01c-0.03-0.003,0.2,0.02-0.044-0.005
					l0.171,0.007l0.684,0.022c1.825,0.052,3.643,0.192,5.48,0.05c7.331-0.261,14.699-1.831,21.835-4.418
					c7.143-2.563,14.098-5.97,20.763-10.018c3.32-2.057,6.611-4.178,9.792-6.507c1.621-1.138,3.153-2.324,4.69-3.503
					c0.76-0.566,1.559-1.216,2.358-1.867L250.144,653.517z"/>
			</g>
		</g>
		<path fill="none" stroke="#D6A354" stroke-width="28" stroke-miterlimit="10" d="M358.269,529.32"/>
		<g>
			<polygon fill="#D6A354" points="376.163,619.813 343.956,571.149 383.908,612.529 			"/>
		</g>
		
			<ellipse fill="none" stroke="#D6A354" stroke-width="20" stroke-miterlimit="10" cx="195.356" cy="593.659" rx="40.011" ry="43.347"/>
		
			<ellipse fill="none" stroke="#D6A354" stroke-width="20" stroke-miterlimit="10" cx="303.944" cy="718.717" rx="40.011" ry="43.346"/>
		<path fill="none" stroke="#D6A354" stroke-width="28" stroke-miterlimit="10" d="M763.398,97.741
			c0.542,0.654,1.07,1.36,1.589,2.129c13.509,20.037-3.377,35.892-10.132,48.088c-3.506,6.33-110.814,140.238-213.184,267.534
			c-17.478,21.731-34.813,43.275-51.459,63.953"/>
		<path fill="none" stroke="#D6A354" stroke-width="28" stroke-miterlimit="10" d="M410.767,393.38l59.786-54.936L730.134,99.87
			c0,0,19.739-18.526,33.267-2.129"/>
		<path fill="none" stroke="#D6A354" stroke-width="28" stroke-miterlimit="10" d="M470.553,338.443l-59.786,54.936L184.249,147.981
			c-3.434-3.726-3.945-9.207-1.136-12.251l45.081-48.838c2.809-3.042,7.869-2.488,11.302,1.238L470.553,338.443z"/>
		<path fill="none" stroke="#D6A354" stroke-width="28" stroke-miterlimit="10" d="M774.747,678.999l-45.081,48.838
			c-2.807,3.044-7.868,2.488-11.31-1.232L608.271,607.342L490.213,479.445c16.645-20.678,33.979-42.222,51.459-63.955
			l231.934,251.264C777.044,670.475,777.556,675.957,774.747,678.999z"/>
		<g>
			<polygon fill="#D6A354" points="187.84,151.948 94.887,242.877 180.66,144.015 			"/>
		</g>
		<g>
			<polygon fill="#D6A354" points="215.633,183.271 122.68,274.199 208.453,175.335 			"/>
		</g>
		<g>
			<polygon fill="#D6A354" points="243.427,214.592 150.474,305.521 236.247,206.658 			"/>
		</g>
		<g>
			<polygon fill="#D6A354" points="271.22,245.913 178.268,336.842 264.041,237.979 			"/>
		</g>
		<g>
			<polygon fill="#D6A354" points="299.014,277.235 206.061,368.164 291.835,269.3 			"/>
		</g>
		<g>
			<polygon fill="#D6A354" points="326.806,308.558 233.854,399.485 319.627,300.622 			"/>
		</g>
		<g>
			<polygon fill="#D6A354" points="354.6,339.878 261.648,430.808 347.42,331.944 			"/>
		</g>
		<g>
			<polygon fill="#D6A354" points="382.394,371.2 289.441,462.129 375.214,363.266 			"/>
		</g>
		<g>
			<polygon fill="#D6A354" points="523.66,520.557 430.706,611.485 516.48,512.62 			"/>
		</g>
		<g>
			<polygon fill="#D6A354" points="553.554,549.977 460.601,640.903 546.374,542.04 			"/>
		</g>
		<g>
			<polygon fill="#D6A354" points="576.948,581.916 483.994,672.843 569.769,573.979 			"/>
		</g>
		<g>
			<polygon fill="#D6A354" points="612.613,610.513 519.661,701.439 605.436,602.577 			"/>
		</g>
		<g>
			<polygon fill="#D6A354" points="637.601,644.871 544.648,735.8 630.423,636.937 			"/>
		</g>
		<g>
			<polygon fill="#D6A354" points="666.312,675.033 573.358,765.962 659.134,667.099 			"/>
		</g>
	</g>
	<g>
		<polygon fill="#D6A354" points="695.127,705.408 602.176,796.335 687.947,697.472 		"/>
	</g>
</g>
</svg>
