<?xml version="1.0" encoding="utf-8"?>
<!-- Generator: Adobe Illustrator 16.0.0, SVG Export Plug-In . SVG Version: 6.00 Build 0)  -->
<!DOCTYPE svg PUBLIC "-//W3C//DTD SVG 1.1//EN" "http://www.w3.org/Graphics/SVG/1.1/DTD/svg11.dtd">
<svg version="1.1" id="Layer_1" xmlns="http://www.w3.org/2000/svg" xmlns:xlink="http://www.w3.org/1999/xlink" x="0px" y="0px"
	 width="900px" height="900px" viewBox="0 0 900 900" enable-background="new 0 0 900 900" xml:space="preserve">
<g>
	<path fill="none" stroke="#D6A253" stroke-width="23" stroke-miterlimit="10" d="M97.333,85.108h215.035
		c0,0,66.871,28.741,43.269,98.542H229.008v-49.271H97.333"/>
	<g>
		<polygon fill="#D6A253" points="256.998,216.498 245.498,386.21 233.998,216.498 		"/>
	</g>
	<g>
		<polygon fill="#D6A253" points="308.134,216.498 296.634,338.308 285.134,216.498 		"/>
	</g>
	<g>
		<polygon fill="#D6A253" points="350.092,216.498 338.592,301.354 327.092,216.498 		"/>
	</g>
	<polyline fill="none" stroke="#D6A253" stroke-width="23" stroke-miterlimit="10" points="103.89,799.543 103.89,602.457 
		153.714,602.457 	"/>
	<g>
		<path fill="#D6A253" d="M181.25,590.957l402.535,6.878l0.708,0.012l0.543,0.16c0.243,0.072,0.353,0.113,0.48,0.157l0.362,0.135
			c0.225,0.088,0.455,0.176,0.658,0.269c0.426,0.181,0.825,0.375,1.221,0.573c0.788,0.397,1.529,0.84,2.255,1.303
			c1.438,0.938,2.757,2.021,3.974,3.198c2.414,2.372,4.377,5.163,5.754,8.151c1.386,2.982,2.294,6.113,2.759,9.229
			c0.451,3.114,0.594,6.218,0.441,9.256c-0.279,6.088-1.561,11.908-3.209,17.521c-1.662,5.615-3.781,11.018-6.176,16.251
			c-1.14,2.649-2.477,5.186-3.724,7.771l-2.013,3.792l-1.009,1.895l-0.126,0.236l-0.17,0.307l-0.269,0.456l-0.535,0.911
			l-2.143,3.644c-0.684,1.214-1.563,2.436-2.335,3.65c-0.803,1.209-1.583,2.445-2.406,3.629l-2.52,3.484
			c-3.359,4.646-7.002,9.051-10.713,13.378c-1.892,2.132-3.808,4.238-5.728,6.338c-1.98,2.043-3.917,4.125-5.93,6.13
			c-4.021,4.013-8.12,7.939-12.333,11.731c-2.106,1.896-4.207,3.799-6.367,5.63l-3.217,2.773l-3.264,2.714
			c-2.166,1.821-4.371,3.594-6.584,5.355c-2.194,1.783-4.444,3.497-6.676,5.232c-4.477,3.452-9.022,6.809-13.599,10.119
			c-9.182,6.582-18.532,12.913-28.051,18.975c-4.753,3.039-9.557,5.997-14.393,8.898c-4.839,2.896-9.71,5.737-14.655,8.445
			c4.848-2.875,9.617-5.879,14.349-8.936c4.729-3.063,9.423-6.178,14.061-9.372c9.288-6.371,18.394-13.001,27.307-19.864
			c4.442-3.45,8.851-6.943,13.181-10.525c2.158-1.8,4.334-3.578,6.452-5.423c2.137-1.823,4.264-3.656,6.349-5.535l3.144-2.801
			l3.091-2.854c2.077-1.887,4.09-3.839,6.107-5.783c4.035-3.891,7.944-7.901,11.767-11.984c1.912-2.039,3.743-4.149,5.617-6.22
			c1.813-2.122,3.618-4.249,5.395-6.396c3.479-4.351,6.879-8.759,9.971-13.359l2.318-3.447c0.746-1.156,1.429-2.331,2.147-3.493
			c0.698-1.188,1.446-2.275,2.104-3.542l2.017-3.716l0.504-0.929l0.253-0.465l0.193-0.393l0.914-1.87l1.825-3.74
			c1.114-2.532,2.326-5.028,3.325-7.596c2.124-5.09,3.95-10.278,5.308-15.524c1.35-5.236,2.305-10.555,2.357-15.747
			c0.043-2.596-0.179-5.139-0.613-7.588c-0.448-2.447-1.231-4.754-2.291-6.847c-1.054-2.101-2.472-3.931-4.128-5.454
			c-0.836-0.75-1.728-1.435-2.671-2.004c-0.476-0.275-0.953-0.54-1.433-0.76c-0.239-0.107-0.477-0.216-0.704-0.3
			c-0.118-0.051-0.22-0.082-0.324-0.119c-0.056-0.021-0.102-0.036-0.135-0.044c-0.039-0.013-0.096-0.029-0.022-0.006l1.251,0.172
			l-402.535,6.878V590.957z"/>
	</g>
	<g>
		<polygon fill="#D6A253" points="589.367,656.381 664.945,665.936 669.18,666.471 671.426,669.189 779.151,799.543 
			656.107,683.539 662.588,686.793 586.783,679.234 		"/>
	</g>
	<path fill="none" stroke="#D6A253" stroke-width="23" stroke-miterlimit="10" d="M245.498,602.457V488.859
		c0,0,26.224-177.925,194.056-160.132c0,0-22.29,34.217-13.112,87.594"/>
	
		<line fill="none" stroke="#D6A253" stroke-width="23" stroke-miterlimit="10" x1="307.124" y1="602.457" x2="307.124" y2="525.812"/>
	<path fill="none" stroke="#D6A253" stroke-width="23" stroke-miterlimit="10" d="M307.124,502.545c0,0,0-34.216,19.668-54.745
		c19.668-20.53,15.734-46.534,15.734-46.534s1.311,97.174,74.738,124.545c0,0-66.648,46.534-16.279,76.646"/>
	<path fill="none" stroke="#D6A253" stroke-width="23" stroke-miterlimit="10" d="M469.712,602.457
		c0,0,43.268-94.436,217.656-46.534"/>
	<path fill="none" stroke="#D6A253" stroke-width="23" stroke-miterlimit="10" d="M721.46,572.412c0,0,36.713,20.464,57.691,51.943"
		/>
	<path fill="none" stroke="#D6A253" stroke-width="23" stroke-miterlimit="10" d="M484.134,347.87c0,0,17.046-6.824,45.892-30.091
		c28.847-23.268,31.469,9.58,43.271,47.902c11.8,38.323,148.164-9.581,76.049,183.398"/>
	<g>
		<path fill="#D6A253" d="M619.361,393.255c0,0-0.745,0.652-2.049,1.793c-0.671,0.576-1.5,1.335-2.417,2.08
			c-0.921,0.764-1.959,1.626-3.093,2.566c-1.129,0.939-2.383,1.907-3.688,2.953c-1.315,1.034-2.674,2.148-4.136,3.234
			c-1.446,1.094-2.941,2.226-4.461,3.375c-1.501,1.16-3.09,2.269-4.652,3.396c-1.563,1.12-3.127,2.239-4.666,3.34
			c-1.538,1.095-3.107,2.112-4.591,3.124c-1.488,1-2.927,1.968-4.291,2.886c-1.347,0.929-2.68,1.741-3.893,2.504
			c-4.838,3.025-8.063,5.042-8.063,5.042s2.237-3.061,5.594-7.652c0.831-1.145,1.747-2.365,2.647-3.722
			c0.911-1.339,1.873-2.75,2.867-4.211c0.984-1.465,2.03-2.942,3.03-4.499c0.993-1.555,2.003-3.135,3.013-4.715
			c1.002-1.58,2.023-3.135,2.957-4.723c0.946-1.57,1.877-3.116,2.778-4.611c0.912-1.481,1.723-2.96,2.518-4.337
			c0.782-1.385,1.546-2.678,2.202-3.892c0.655-1.209,1.257-2.318,1.79-3.301c0.551-0.99,0.931-1.801,1.291-2.49
			c0.721-1.417,1.133-2.228,1.133-2.228L619.361,393.255z"/>
	</g>
	<g>
		<path fill="#D6A253" d="M492.002,373.893c0,0,0.047,0.062,0.137,0.181c0.086,0.118,0.238,0.298,0.375,0.524
			c0.275,0.451,0.77,1.15,1.197,1.991c0.468,0.856,0.929,1.875,1.384,3.045c0.447,1.167,0.843,2.466,1.177,3.876
			c0.313,1.403,0.569,2.917,0.662,4.48c0.112,1.569,0.104,3.201-0.063,4.854c-0.132,1.66-0.461,3.334-0.9,4.999
			c-0.43,1.667-1.072,3.312-1.759,4.919c-0.767,1.594-1.62,3.146-2.6,4.607c-1.034,1.455-2.101,2.824-3.338,4.058
			c-1.263,1.226-2.486,2.352-3.876,3.292c-1.394,0.938-2.731,1.751-4.116,2.373c-1.417,0.609-2.754,1.078-3.981,1.41
			c-1.218,0.338-2.437,0.474-3.401,0.56c-0.962,0.098-1.806,0.047-2.329,0.053c-0.262,0.003-0.492-0.028-0.636-0.038
			c-0.146-0.013-0.222-0.02-0.222-0.02s-0.007-0.079-0.021-0.231c-0.01-0.149-0.043-0.388-0.048-0.655
			c-0.009-0.535-0.098-1.379-0.099-2.291c-0.037-0.952,0.016-1.951-0.009-3.146c-0.012-1.181,0.023-2.419,0.104-3.673
			c0.059-1.28,0.136-2.638,0.321-3.936c0.185-1.299,0.353-2.711,0.676-4.014c0.312-1.32,0.62-2.719,1.106-4.005
			c0.44-1.333,0.957-2.659,1.567-3.937c0.57-1.318,1.288-2.557,2.011-3.807c0.724-1.248,1.575-2.425,2.438-3.582
			c0.89-1.142,1.824-2.237,2.8-3.267c0.998-1.021,1.974-1.994,3.02-2.866c1.017-0.878,2.031-1.681,2.999-2.384
			c0.964-0.704,1.88-1.315,2.681-1.812c0.777-0.508,1.527-0.874,1.975-1.15C491.709,374.034,492.002,373.893,492.002,373.893z"/>
	</g>
</g>
</svg>
