<?xml version="1.0" encoding="utf-8"?>
<!-- Generator: Adobe Illustrator 16.0.0, SVG Export Plug-In . SVG Version: 6.00 Build 0)  -->
<!DOCTYPE svg PUBLIC "-//W3C//DTD SVG 1.1//EN" "http://www.w3.org/Graphics/SVG/1.1/DTD/svg11.dtd">
<svg version="1.1" id="Layer_1" xmlns="http://www.w3.org/2000/svg" xmlns:xlink="http://www.w3.org/1999/xlink" x="0px" y="0px"
	 width="900px" height="900px" viewBox="0 0 900 900" enable-background="new 0 0 900 900" xml:space="preserve">
<g>
	<path fill="none" stroke="#D6A354" stroke-width="28" stroke-miterlimit="10" d="M444.008,330.543h-66L140.007,97.876
		c0,0-19.333-23.333-36-7.333s-4,27.333,7.333,40s213.333,216,213.333,216s25.999,35.333,16,88.666c-10,53.334-10,71.334-10,71.334
		l81.333,59.334c0,0,19.333,14.666,38-3.334c18.667-18,124.667-120.667,124.667-120.667s15.332-24.667-0.668-45.333
		s-54.666-68.319-54.666-68.319h-48.666"/>
	<path fill="none" stroke="#D6A354" stroke-width="28" stroke-miterlimit="10" d="M578.309,434.028l59.031,65.181
		c0,0,20,29.332-11.334,52.666l-28,19.633l-50.666-52.299"/>
	<path fill="none" stroke="#D6A354" stroke-width="28" stroke-miterlimit="10" d="M444.811,566.744l67.863,67.799
		c0,0,10,19.332,60.666-34.668"/>
	
		<line fill="none" stroke="#D6A354" stroke-width="28" stroke-miterlimit="10" x1="557.701" y1="615.48" x2="506.006" y2="559.875"/>
	<path fill="none" stroke="#D6A354" stroke-width="28" stroke-miterlimit="10" d="M198.008,539.543h-61c0,0-52,87,140,215h228.998"
		/>
	<path fill="none" stroke="#D6A354" stroke-width="28" stroke-miterlimit="10" d="M277.008,754.543c0,0-5.421,45,43.29,45
		s280.71,0,280.71,0s35-4,29-45h-91"/>
	<path fill="none" stroke="#D6A354" stroke-width="28" stroke-miterlimit="10" d="M637.939,539.543h129.068c0,0,67,73-137,215"/>
	
		<line fill="none" stroke="#D6A354" stroke-width="28" stroke-miterlimit="10" x1="231.008" y1="539.543" x2="375.91" y2="539.543"/>
	<path fill="none" stroke="#D6A354" stroke-width="28" stroke-miterlimit="10" d="M276.829,539.543v107.5c0,0,18.18,33.5,48.18,0
		s0-107.5,0-107.5"/>
</g>
</svg>
