<?xml version="1.0" encoding="utf-8"?>
<!-- Generator: Adobe Illustrator 16.0.0, SVG Export Plug-In . SVG Version: 6.00 Build 0)  -->
<!DOCTYPE svg PUBLIC "-//W3C//DTD SVG 1.1//EN" "http://www.w3.org/Graphics/SVG/1.1/DTD/svg11.dtd">
<svg version="1.1" id="Layer_1" xmlns="http://www.w3.org/2000/svg" xmlns:xlink="http://www.w3.org/1999/xlink" x="0px" y="0px"
	 width="900px" height="900px" viewBox="0 0 900 900" enable-background="new 0 0 900 900" xml:space="preserve">
<g>
	<path fill="none" stroke="#D6A252" stroke-width="28" stroke-miterlimit="10" d="M150.278,778.619
		c-29.595-28.692-38.114-66.938-45.464-105.739c-15.07-79.554-9.011-159.332,23.977-235.012
		c17.224-39.516,40.261-79.864,68.148-114.582c28.099-34.98,62.812-72.923,100.57-100.368
		c16.505-11.997,33.529-23.972,52.177-33.363c31.274-15.751,72.985-27.725,105.606-7.374c28.372,17.703,37.944,50.449,17.277,75.506
		c-10.089,12.233-23.102,21.881-38.106,29.292c-18.129,8.955-36.916,16.871-55.098,25.754
		c-35.188,17.193-64.921,44.971-87.355,73.866c-6.562,8.453-12.606,17.192-18.034,26.236
		c-40.166,66.935-50.315,145.62-42.71,220.056c3.181,31.118,18.697,62.487,25.729,93.124
		C269.556,780.738,196.964,823.876,150.278,778.619z"/>
	
		<ellipse fill="none" stroke="#D6A252" stroke-width="15" stroke-miterlimit="10" cx="410.013" cy="227.251" rx="24.011" ry="20.912"/>
	<path fill="none" stroke="#D6A252" stroke-width="28" stroke-miterlimit="10" d="M410.013,298.478
		c39.047,34.945,74.297,73.836,111.429,110.331c31.473,30.934,63.152,61.888,94.06,93.242
		c36.953,37.488,74.279,75.895,113.627,111.466c23.979,21.676,50.022,51.807,49.357,83.479
		c-0.622,29.689-28.627,49.98-56.742,62.225L377.254,431.911c0,0,58.479-53.834-20.868-106.017"/>
	<g>
		<path fill="#D6A252" d="M301.69,217.663c0,0-0.115-0.102-0.339-0.299c-0.267-0.23-0.683-0.588-1.095-0.971
			c-0.888-0.802-2.099-1.951-3.614-3.427c-3.004-2.954-7.114-7.226-11.719-12.588c-2.283-2.701-4.721-5.64-7.162-8.86
			c-2.473-3.187-4.927-6.674-7.394-10.309c-2.416-3.683-4.843-7.519-7.076-11.566c-0.558-1.009-1.118-2.021-1.68-3.038
			c-0.529-1.036-1.06-2.074-1.592-3.115c-1.093-2.053-2.02-4.229-3.015-6.338c-0.945-2.145-1.823-4.321-2.686-6.48
			c-0.396-1.098-0.791-2.193-1.184-3.285c-0.397-1.087-0.786-2.171-1.105-3.283c-0.667-2.208-1.378-4.363-1.876-6.569
			c-0.27-1.09-0.538-2.174-0.805-3.25c-0.236-1.084-0.421-2.175-0.629-3.244c-0.195-1.074-0.416-2.127-0.581-3.183
			c-0.135-1.062-0.268-2.113-0.399-3.153c-0.117-1.041-0.289-2.054-0.352-3.075c-0.062-1.018-0.124-2.024-0.184-3.017
			c-0.047-0.991-0.144-1.958-0.146-2.922c0.007-0.961,0.015-1.909,0.022-2.84c0.009-0.926,0.018-1.836,0.026-2.729
			c0.068-0.892,0.136-1.767,0.202-2.624c0.178-3.421,0.755-6.509,1.175-9.224c0.239-1.354,0.592-2.603,0.849-3.76
			c0.284-1.153,0.504-2.214,0.773-3.157c1.198-3.721,1.882-5.848,1.882-5.848s-0.254,2.204-0.698,6.06
			c-0.096,1.935-0.206,4.277-0.233,6.938c0.119,2.676,0.151,5.666,0.625,8.895c0.096,0.804,0.194,1.625,0.294,2.461
			c0.158,0.829,0.32,1.673,0.484,2.532c0.163,0.854,0.328,1.721,0.496,2.603c0.176,0.877,0.448,1.755,0.67,2.648
			c0.234,0.889,0.471,1.789,0.71,2.701c0.238,0.909,0.587,1.808,0.878,2.724c0.304,0.911,0.611,1.832,0.922,2.761
			c0.339,0.92,0.732,1.834,1.098,2.76c0.379,0.922,0.733,1.856,1.137,2.782c0.432,0.915,0.866,1.835,1.303,2.762
			c0.823,1.863,1.858,3.671,2.833,5.503c0.472,0.921,1.015,1.819,1.563,2.714c0.54,0.896,1.082,1.793,1.624,2.693
			c1.154,1.764,2.309,3.527,3.52,5.252c1.267,1.699,2.44,3.432,3.782,5.062c0.651,0.823,1.3,1.644,1.947,2.462
			c0.676,0.797,1.351,1.593,2.022,2.385c2.672,3.167,5.501,6.127,8.265,8.938c2.822,2.771,5.579,5.398,8.318,7.766
			c2.703,2.396,5.362,4.546,7.82,6.502c4.956,3.874,9.238,6.845,12.232,8.802c1.496,0.966,2.674,1.707,3.442,2.159
			c0.41,0.251,0.634,0.366,0.798,0.457c0.208,0.121,0.316,0.183,0.316,0.183L301.69,217.663z"/>
	</g>
</g>
</svg>
